<svg width="21" height="17" viewBox="0 0 21 17" fill="none" xmlns="http://www.w3.org/2000/svg">
<path d="M1.05451 2.87494L19.7977 2.87494C20.1425 2.87494 20.4222 2.45491 20.422 1.93747C20.4218 1.41995 20.1418 1 19.7969 1L1.05378 1C0.708892 1 0.429187 1.42003 0.429388 1.93747C0.429589 2.45491 0.709671 2.87494 1.05451 2.87494Z" fill="black" stroke="white" stroke-width="0.2"/>
<path d="M19.7972 7.5625L1.05408 7.5625C0.709197 7.5625 0.429492 7.98253 0.429693 8.49997C0.429894 9.0174 0.709977 9.43743 1.05481 9.43743L19.798 9.43743C20.1428 9.43743 20.4225 9.01741 20.4223 8.49997C20.4221 7.98253 20.1421 7.5625 19.7972 7.5625Z" fill="black" stroke="white" stroke-width="0.2"/>
<path d="M19.797 14.125L7.30175 14.125C6.95687 14.125 6.67716 14.545 6.67735 15.0625C6.67754 15.58 6.95761 15.9999 7.30244 15.9999L19.7977 15.9999C20.1426 15.9999 20.4223 15.5799 20.4221 15.0625C20.4219 14.545 20.1419 14.125 19.797 14.125Z" fill="black" stroke="white" stroke-width="0.2"/>
</svg>
