<svg width="22" height="18" viewBox="0 0 22 18" fill="none" xmlns="http://www.w3.org/2000/svg">
<path fill-rule="evenodd" clip-rule="evenodd" d="M19.125 0.947327H2.125C0.951395 0.947327 0 1.84865 0 2.96049V15.0395C0 16.1513 0.951395 17.0526 2.125 17.0526H19.125C20.2986 17.0526 21.25 16.1513 21.25 15.0395V2.96049C21.25 1.84865 20.2986 0.947327 19.125 0.947327ZM19.125 2.96051V5.87959L11.3156 11.0635C10.9003 11.3365 10.3497 11.3365 9.93437 11.0635L2.125 5.87959V2.96051H19.125ZM2.125 7.99338V15.0395H19.125V7.99338L12.3781 12.4626C11.3252 13.1599 9.92476 13.1599 8.87187 12.4626L2.125 7.99338Z" fill="#707070"/>
</svg>
